<svg width="1483" height="441" viewBox="0 0 1483 441" fill="none" xmlns="http://www.w3.org/2000/svg">
<g opacity="0.6">
<path d="M-8 41.4849C-8 41.4849 290.5 208.805 546 205.964C801.5 203.124 820.682 -6.44201 1080 1.20424C1260.58 6.52869 1482 119.981 1482 119.981" stroke="url(#paint0_linear_2995_12142)" stroke-width="0.5"/>
<path d="M-8 59.4849C-8 59.4849 290.5 226.805 546 223.964C801.5 221.124 820.682 11.558 1080 19.2042C1260.58 24.5287 1482 137.981 1482 137.981" stroke="url(#paint1_linear_2995_12142)" stroke-width="0.5"/>
<path d="M-8 77.4849C-8 77.4849 290.5 244.805 546 241.964C801.5 239.124 820.682 29.558 1080 37.2042C1260.58 42.5287 1482 155.981 1482 155.981" stroke="url(#paint2_linear_2995_12142)" stroke-width="0.5"/>
<path d="M-8 95.4849C-8 95.4849 290.5 262.805 546 259.964C801.5 257.124 820.682 47.558 1080 55.2042C1260.58 60.5287 1482 173.981 1482 173.981" stroke="url(#paint3_linear_2995_12142)" stroke-width="0.5"/>
<path d="M-8 113.485C-8 113.485 290.5 280.805 546 277.964C801.5 275.124 820.682 65.558 1080 73.2042C1260.58 78.5287 1482 191.981 1482 191.981" stroke="url(#paint4_linear_2995_12142)" stroke-width="0.5"/>
<path d="M-8 131.485C-8 131.485 290.5 298.805 546 295.964C801.5 293.124 820.682 83.558 1080 91.2042C1260.58 96.5287 1482 209.981 1482 209.981" stroke="url(#paint5_linear_2995_12142)" stroke-width="0.5"/>
<path d="M-8 149.485C-8 149.485 290.5 316.805 546 313.964C801.5 311.124 820.682 101.558 1080 109.204C1260.58 114.529 1482 227.981 1482 227.981" stroke="url(#paint6_linear_2995_12142)" stroke-width="0.5"/>
<path d="M-8 167.485C-8 167.485 290.5 334.805 546 331.964C801.5 329.124 820.682 119.558 1080 127.204C1260.58 132.529 1482 245.981 1482 245.981" stroke="url(#paint7_linear_2995_12142)" stroke-width="0.5"/>
<path d="M-8 185.485C-8 185.485 290.5 352.805 546 349.964C801.5 347.124 820.682 137.558 1080 145.204C1260.58 150.529 1482 263.981 1482 263.981" stroke="url(#paint8_linear_2995_12142)" stroke-width="0.5"/>
<path d="M-8 203.485C-8 203.485 290.5 370.805 546 367.964C801.5 365.124 820.682 155.558 1080 163.204C1260.58 168.529 1482 281.981 1482 281.981" stroke="url(#paint9_linear_2995_12142)" stroke-width="0.5"/>
<path d="M-8 221.485C-8 221.485 290.5 388.805 546 385.964C801.5 383.124 820.682 173.558 1080 181.204C1260.58 186.529 1482 299.981 1482 299.981" stroke="url(#paint10_linear_2995_12142)" stroke-width="0.5"/>
<path d="M-8 239.485C-8 239.485 290.5 406.805 546 403.964C801.5 401.124 820.682 191.558 1080 199.204C1260.58 204.529 1482 317.981 1482 317.981" stroke="url(#paint11_linear_2995_12142)" stroke-width="0.5"/>
<path d="M-8 257.485C-8 257.485 290.5 424.805 546 421.964C801.5 419.124 820.682 209.558 1080 217.204C1260.58 222.529 1482 335.981 1482 335.981" stroke="url(#paint12_linear_2995_12142)" stroke-width="0.5"/>
<path d="M-8 275.485C-8 275.485 290.5 442.805 546 439.964C801.5 437.124 820.682 227.558 1080 235.204C1260.58 240.529 1482 353.981 1482 353.981" stroke="url(#paint13_linear_2995_12142)" stroke-width="0.5"/>
</g>
<defs>
<linearGradient id="paint0_linear_2995_12142" x1="-8" y1="103.5" x2="1482" y2="103.5" gradientUnits="userSpaceOnUse">
<stop stop-opacity="0"/>
<stop offset="0.5" stop-color="#BDBDBD"/>
<stop offset="0.75" stop-color="#454545" stop-opacity="0.5"/>
<stop offset="1" stop-opacity="0"/>
</linearGradient>
<linearGradient id="paint1_linear_2995_12142" x1="-8" y1="121.5" x2="1482" y2="121.5" gradientUnits="userSpaceOnUse">
<stop stop-opacity="0"/>
<stop offset="0.5" stop-color="#BDBDBD"/>
<stop offset="0.75" stop-color="#454545" stop-opacity="0.5"/>
<stop offset="1" stop-opacity="0"/>
</linearGradient>
<linearGradient id="paint2_linear_2995_12142" x1="-8" y1="139.5" x2="1482" y2="139.5" gradientUnits="userSpaceOnUse">
<stop stop-opacity="0"/>
<stop offset="0.5" stop-color="#BDBDBD"/>
<stop offset="0.75" stop-color="#454545" stop-opacity="0.5"/>
<stop offset="1" stop-opacity="0"/>
</linearGradient>
<linearGradient id="paint3_linear_2995_12142" x1="-8" y1="157.5" x2="1482" y2="157.5" gradientUnits="userSpaceOnUse">
<stop stop-opacity="0"/>
<stop offset="0.5" stop-color="#BDBDBD"/>
<stop offset="0.75" stop-color="#454545" stop-opacity="0.5"/>
<stop offset="1" stop-opacity="0"/>
</linearGradient>
<linearGradient id="paint4_linear_2995_12142" x1="-8" y1="175.5" x2="1482" y2="175.5" gradientUnits="userSpaceOnUse">
<stop stop-opacity="0"/>
<stop offset="0.5" stop-color="#BDBDBD"/>
<stop offset="0.75" stop-color="#454545" stop-opacity="0.5"/>
<stop offset="1" stop-opacity="0"/>
</linearGradient>
<linearGradient id="paint5_linear_2995_12142" x1="-8" y1="193.5" x2="1482" y2="193.5" gradientUnits="userSpaceOnUse">
<stop stop-opacity="0"/>
<stop offset="0.5" stop-color="#BDBDBD"/>
<stop offset="0.75" stop-color="#454545" stop-opacity="0.5"/>
<stop offset="1" stop-opacity="0"/>
</linearGradient>
<linearGradient id="paint6_linear_2995_12142" x1="-8" y1="211.5" x2="1482" y2="211.5" gradientUnits="userSpaceOnUse">
<stop stop-opacity="0"/>
<stop offset="0.5" stop-color="#BDBDBD"/>
<stop offset="0.75" stop-color="#454545" stop-opacity="0.5"/>
<stop offset="1" stop-opacity="0"/>
</linearGradient>
<linearGradient id="paint7_linear_2995_12142" x1="-8" y1="229.5" x2="1482" y2="229.5" gradientUnits="userSpaceOnUse">
<stop stop-opacity="0"/>
<stop offset="0.5" stop-color="#BDBDBD"/>
<stop offset="0.75" stop-color="#454545" stop-opacity="0.5"/>
<stop offset="1" stop-opacity="0"/>
</linearGradient>
<linearGradient id="paint8_linear_2995_12142" x1="-8" y1="247.5" x2="1482" y2="247.5" gradientUnits="userSpaceOnUse">
<stop stop-opacity="0"/>
<stop offset="0.5" stop-color="#BDBDBD"/>
<stop offset="0.75" stop-color="#454545" stop-opacity="0.5"/>
<stop offset="1" stop-opacity="0"/>
</linearGradient>
<linearGradient id="paint9_linear_2995_12142" x1="-8" y1="265.5" x2="1482" y2="265.5" gradientUnits="userSpaceOnUse">
<stop stop-opacity="0"/>
<stop offset="0.5" stop-color="#BDBDBD"/>
<stop offset="0.75" stop-color="#454545" stop-opacity="0.5"/>
<stop offset="1" stop-opacity="0"/>
</linearGradient>
<linearGradient id="paint10_linear_2995_12142" x1="-8" y1="283.5" x2="1482" y2="283.5" gradientUnits="userSpaceOnUse">
<stop stop-opacity="0"/>
<stop offset="0.5" stop-color="#BDBDBD"/>
<stop offset="0.75" stop-color="#454545" stop-opacity="0.5"/>
<stop offset="1" stop-opacity="0"/>
</linearGradient>
<linearGradient id="paint11_linear_2995_12142" x1="-8" y1="301.5" x2="1482" y2="301.5" gradientUnits="userSpaceOnUse">
<stop stop-opacity="0"/>
<stop offset="0.5" stop-color="#BDBDBD"/>
<stop offset="0.75" stop-color="#454545" stop-opacity="0.5"/>
<stop offset="1" stop-opacity="0"/>
</linearGradient>
<linearGradient id="paint12_linear_2995_12142" x1="-8" y1="319.5" x2="1482" y2="319.5" gradientUnits="userSpaceOnUse">
<stop stop-opacity="0"/>
<stop offset="0.5" stop-color="#BDBDBD"/>
<stop offset="0.75" stop-color="#454545" stop-opacity="0.5"/>
<stop offset="1" stop-opacity="0"/>
</linearGradient>
<linearGradient id="paint13_linear_2995_12142" x1="-8" y1="337.5" x2="1482" y2="337.5" gradientUnits="userSpaceOnUse">
<stop stop-opacity="0"/>
<stop offset="0.5" stop-color="#BDBDBD"/>
<stop offset="0.75" stop-color="#454545" stop-opacity="0.5"/>
<stop offset="1" stop-opacity="0"/>
</linearGradient>
</defs>
</svg>
